<svg xmlns="http://www.w3.org/2000/svg" version="1.1" xmlns:xlink="http://www.w3.org/1999/xlink" xmlns:svgjs="http://svgjs.dev/svgjs" width="1920" height="500" preserveAspectRatio="none" viewBox="0 0 1920 500"><g mask="url(&quot;#SvgjsMask1154&quot;)" fill="none"><rect width="1920" height="500" x="0" y="0" fill="rgba(29, 89, 125, 1)"></rect><path d="M -797.9481696050385,464 C -669.95,380 -413.95,52.4 -157.94816960503852,44 C 98.05,35.6 226.05,422.2 482.0518303949615,422 C 738.05,421.8 866.05,72.8 1122.0518303949616,43 C 1378.05,13.2 1602.46,236.4 1762.0518303949616,273 C 1921.64,309.6 1888.41,235.4 1920,226" stroke="rgba(131, 182, 185, 1)" stroke-width="2"></path><path d="M -957.9660502648541,388 C -829.97,351.2 -573.97,205.4 -317.96605026485406,204 C -61.97,202.6 66.03,395.8 322.03394973514594,381 C 578.03,366.2 706.03,111.4 962.0339497351459,130 C 1218.03,148.6 1410.44,462.6 1602.033949735146,474 C 1793.63,485.4 1856.41,244.4 1920,187" stroke="rgba(131, 182, 185, 1)" stroke-width="2"></path><path d="M -1041.0810208245339,129 C -913.08,190.6 -657.08,423.4 -401.081020824534,437 C -145.08,450.6 -17.08,222.4 238.918979175466,197 C 494.92,171.6 622.92,336 878.918979175466,310 C 1134.92,284 1310.7,30 1518.9189791754661,67 C 1727.14,104 1839.78,409.4 1920,495" stroke="rgba(131, 182, 185, 1)" stroke-width="2"></path><path d="M -131.59613960423076,133 C -3.6,202.6 252.4,485.2 508.40386039576924,481 C 764.4,476.8 892.4,149.6 1148.4038603957692,112 C 1404.4,74.4 1532.4,289.8 1788.4038603957692,293 C 2044.4,296.2 2402.08,136.2 2428.4038603957692,128 C 2454.72,119.8 2021.68,227.2 1920,252" stroke="rgba(131, 182, 185, 1)" stroke-width="2"></path><path d="M -1214.563775007772,221 C -1086.56,274.8 -830.56,499.6 -574.5637750077719,490 C -318.56,480.4 -190.56,197.8 65.43622499222806,173 C 321.44,148.2 449.44,390.2 705.4362249922281,366 C 961.44,341.8 1102.52,70.2 1345.436224992228,52 C 1588.35,33.8 1805.09,230.4 1920,275" stroke="rgba(131, 182, 185, 1)" stroke-width="2"></path></g><defs><mask id="SvgjsMask1154"><rect width="1920" height="500" fill="#ffffff"></rect></mask></defs></svg>